<svg width="27" height="27" viewBox="0 0 27 27" fill="none" xmlns="http://www.w3.org/2000/svg">
<path d="M27 13.5815C27 6.08179 20.956 -9.16018e-07 13.5 -5.90104e-07C6.04395 -2.64189e-07 2.65844e-07 6.08179 5.93666e-07 13.5815C8.90024e-07 20.3614 4.93695 25.9814 11.3913 27L11.3913 17.5065L7.9623 17.5065L7.9623 13.5815L11.3913 13.5815L11.3913 10.5908C11.3913 7.18597 13.4055 5.30629 16.4902 5.30629C17.9671 5.30629 19.5115 5.57113 19.5115 5.57113L19.5115 8.91353L17.8105 8.91353C16.1325 8.91353 15.61 9.96066 15.61 11.035L15.61 13.5828L19.3536 13.5828L18.7555 17.5079L15.61 17.5079L15.61 26.9986C22.063 25.98 27 20.3614 27 13.5828L27 13.5815Z" fill="black"/>
</svg>
