<svg width="28" height="27" viewBox="0 0 28 27" fill="none" xmlns="http://www.w3.org/2000/svg">
<path fill-rule="evenodd" clip-rule="evenodd" d="M1.1186 4.07295C2.60059e-07 5.94945 3.69995e-07 8.4645 5.90104e-07 13.5C8.10154e-07 18.5342 9.20149e-07 21.0506 1.1186 22.9271C1.86055 24.1726 2.93211 25.2059 4.2238 25.9214C6.1698 27 8.778 27 14 27C19.2206 27 21.8302 27 23.7762 25.9214C25.0679 25.2059 26.1395 24.1726 26.8814 22.9271C28 21.0506 28 18.5355 28 13.5C28 8.46585 28 5.94945 26.8814 4.07295C26.1395 2.82739 25.0679 1.7941 23.7762 1.07865C21.8302 -9.54228e-07 19.222 -8.4022e-07 14 -6.11959e-07C8.7794 -3.8376e-07 6.1698 -2.69691e-07 4.2238 1.07865C2.93211 1.7941 1.86055 2.82739 1.1186 4.07295ZM19.8688 24.219C18.473 24.3405 16.66 24.3432 14 24.3432C11.34 24.3432 9.527 24.3405 8.1312 24.219C6.7732 24.1016 6.0802 23.8869 5.5944 23.6183C4.72552 23.137 4.0047 22.4419 3.5056 21.6041C3.2256 21.1356 3.0044 20.4674 2.8826 19.1579C2.7566 17.8119 2.7538 16.0637 2.7538 13.4987C2.7538 10.9337 2.7566 9.1854 2.8826 7.83945C3.0044 6.52995 3.227 5.8617 3.5056 5.39325C4.0047 4.5554 4.72552 3.86033 5.5944 3.37905C6.0802 3.10905 6.7732 2.89575 8.1312 2.7783C9.527 2.6568 11.34 2.6541 14 2.6541C16.66 2.6541 18.473 2.6568 19.8688 2.7783C21.2268 2.89575 21.9198 3.1104 22.4042 3.37905C23.2736 3.861 23.9946 4.55625 24.4944 5.39325C24.773 5.8617 24.9956 6.52995 25.1174 7.83945C25.2434 9.1854 25.2462 10.9336 25.2462 13.4986C25.2462 16.0637 25.2434 17.8119 25.1174 19.1579C24.9956 20.4674 24.773 21.1356 24.4944 21.6027C23.9954 22.441 23.2746 23.1366 22.4056 23.6183C21.9198 23.8869 21.2268 24.1016 19.8688 24.219ZM19.4152 6.45975C19.4152 5.97836 19.6135 5.51669 19.9665 5.1763C20.3195 4.83591 20.7983 4.64467 21.2975 4.64467C21.7967 4.64467 22.2755 4.83591 22.6285 5.1763C22.9815 5.51669 23.1798 5.97836 23.1798 6.45975C23.1798 6.94096 22.9816 7.40246 22.6287 7.74272C22.2758 8.08299 21.7972 8.27415 21.2982 8.27415C20.7992 8.27415 20.3206 8.08299 19.9677 7.74272C19.6148 7.40246 19.4166 6.94096 19.4166 6.45975L19.4152 6.45975ZM14 6.45975C13.0414 6.45975 12.0922 6.64182 11.2066 6.99555C10.3209 7.34929 9.51623 7.86777 8.8384 8.5214C8.16057 9.17502 7.62289 9.95098 7.25605 10.805C6.88921 11.659 6.7004 12.5743 6.7004 13.4987C6.7004 14.423 6.88921 15.3383 7.25605 16.1923C7.62289 17.0463 8.16057 17.8223 8.8384 18.4759C9.51623 19.1295 10.3209 19.648 11.2066 20.0017C12.0922 20.3555 13.0414 20.5376 14 20.5376C15.9362 20.5376 17.793 19.7959 19.1621 18.4757C20.5312 17.1555 21.3003 15.365 21.3003 13.498C21.3003 11.631 20.5312 9.84042 19.1621 8.52024C17.793 7.20007 15.9362 6.4584 14 6.4584L14 6.45975ZM9.6404 13.5C9.6404 12.9479 9.75316 12.4013 9.97225 11.8912C10.1913 11.3812 10.5125 10.9178 10.9173 10.5274C11.3221 10.137 11.8027 9.82737 12.3317 9.6161C12.8606 9.40484 13.4275 9.2961 14 9.2961C14.5725 9.2961 15.1394 9.40484 15.6683 9.6161C16.1973 9.82737 16.6779 10.137 17.0827 10.5274C17.4875 10.9178 17.8087 11.3812 18.0277 11.8912C18.2468 12.4013 18.3596 12.9479 18.3596 13.5C18.3596 14.6149 17.9003 15.6842 17.0827 16.4726C16.2651 17.261 15.1562 17.7039 14 17.7039C12.8438 17.7039 11.7349 17.261 10.9173 16.4726C10.0997 15.6842 9.6404 14.6149 9.6404 13.5Z" fill="black"/>
</svg>
