<svg width="27" height="23" viewBox="0 0 27 23" fill="none" xmlns="http://www.w3.org/2000/svg">
<path d="M27 2.70588C25.9921 3.18188 24.9218 3.49672 23.8248 3.63992C24.9799 2.9109 25.8423 1.7659 26.2507 0.418901C25.166 1.09753 23.9791 1.57799 22.7407 1.83977C21.7215 0.676469 20.2891 -8.86867e-07 18.6637 -8.15818e-07C15.6289 -6.83163e-07 13.1517 2.59691 13.1517 5.80378C13.1517 6.26372 13.203 6.70951 13.2934 7.12983C11.093 7.01295 8.94046 6.41303 6.97516 5.3689C5.00987 4.32477 3.2756 2.85969 1.8846 1.06848C1.39244 1.95074 1.13379 2.9547 1.13535 3.97674C1.13535 5.99342 2.1033 7.77941 3.60045 8.79412C2.68515 8.79412 1.83195 8.52381 1.08405 8.11765L1.08405 8.15869C1.0832 9.49951 1.52491 10.7994 2.33423 11.8376C3.14355 12.8759 4.27063 13.5886 5.5242 13.8549C4.71199 14.0874 3.85943 14.1194 3.03345 13.9483C3.38378 15.1019 4.0702 16.1114 4.99618 16.8349C5.92217 17.5584 7.04117 17.9594 8.19585 17.9817C6.2384 19.6053 3.81232 20.4827 1.31625 20.4696C0.877501 20.4696 0.438751 20.4427 8.91229e-07 20.3889C2.5325 22.0963 5.48051 23.0027 8.4915 23C18.6624 23 24.2514 14.1521 24.2514 6.48025C24.2514 6.22268 24.2514 5.97926 24.2379 5.72311C25.3254 4.90115 26.2613 3.87878 27 2.70588Z" fill="black"/>
</svg>
